<svg version="1.1" xmlns="http://www.w3.org/2000/svg" viewBox="0 0 963.2936401065475 288.2672679067625" width="963.2936401065475" height="288.2672679067625" filter="invert(93%) hue-rotate(180deg)" class="excalidraw-svg">
  <!-- svg-source:excalidraw -->
  
  <defs>
    <style class="style-fonts">
      
    </style>
    
  </defs>
  <g stroke-linecap="round"><g transform="translate(11.904699779691668 215.5957351848483) rotate(0 125.23810577392578 0.4761962890625)"><path d="M-0.83 -0.86 C40.99 -0.4, 208.14 1.88, 249.86 2.01 M0.94 1.3 C43.25 1.51, 210.43 0.55, 252.25 0.44" stroke="#1e1e1e" stroke-width="2" fill="none"></path></g><g transform="translate(11.904699779691668 215.5957351848483) rotate(0 125.23810577392578 0.4761962890625)"><path d="M254.25 0.28 L239.89 5.18 L238.82 -4.01 L251.24 0.06" stroke="none" stroke-width="0" fill="#1e1e1e" fill-rule="evenodd"></path><path d="M252.25 0.44 C248.25 0.94, 247.77 1.82, 238.68 6.84 M252.25 0.44 C249.6 1.62, 245.93 2.52, 238.68 6.84 M238.68 6.84 C239.3 1.85, 237.64 -3, 238.63 -5.84 M238.68 6.84 C238.31 3.81, 239.08 1.39, 238.63 -5.84 M238.63 -5.84 C242.8 -4.13, 246.8 -1.78, 252.25 0.44 M238.63 -5.84 C243.72 -3.41, 247.28 -1.34, 252.25 0.44 M252.25 0.44 C252.25 0.44, 252.25 0.44, 252.25 0.44 M252.25 0.44 C252.25 0.44, 252.25 0.44, 252.25 0.44" stroke="#1e1e1e" stroke-width="2" fill="none"></path></g></g><mask></mask><g stroke-linecap="round"><g transform="translate(39.52374885195729 253.6910720989108) rotate(0 0 -121.90481567382812)"><path d="M0.89 0.17 C1.02 -40.55, 1.04 -203.03, 0.72 -243.69 M-0.09 -0.79 C-0.06 -41.34, -0.08 -201.82, 0.15 -242.09" stroke="#1e1e1e" stroke-width="2" fill="none"></path></g><g transform="translate(39.52374885195729 253.6910720989108) rotate(0 0 -121.90481567382812)"><path d="M1.17 -240.6 L4.66 -229.48 L-6.33 -226.87 L-0.05 -240.3" stroke="none" stroke-width="0" fill="#1e1e1e" fill-rule="evenodd"></path><path d="M0.15 -242.09 C2.3 -237.2, 4.11 -235.35, 6.46 -228.48 M0.15 -242.09 C1.95 -237.58, 3.3 -233.84, 6.46 -228.48 M6.46 -228.48 C2.43 -227.81, -2.49 -227.57, -6.22 -228.51 M6.46 -228.48 C1.59 -228.2, -2.85 -227.76, -6.22 -228.51 M-6.22 -228.51 C-4.51 -231.72, -4.73 -235.18, 0.15 -242.09 M-6.22 -228.51 C-3.74 -233.15, -2.17 -238.06, 0.15 -242.09 M0.15 -242.09 C0.15 -242.09, 0.15 -242.09, 0.15 -242.09 M0.15 -242.09 C0.15 -242.09, 0.15 -242.09, 0.15 -242.09" stroke="#1e1e1e" stroke-width="2" fill="none"></path></g></g><mask></mask><g stroke-linecap="round"><g transform="translate(39.52374885195729 216.5481277629733) rotate(0 22.380958557128906 -48.095245361328125)"><path d="M-0.54 0.02 C6.79 -15.82, 35.95 -79.39, 43.65 -95.5 M1.38 -1.01 C9.09 -17.16, 38.44 -81.51, 45.78 -97.26" stroke="#1e1e1e" stroke-width="2" fill="none"></path></g><g transform="translate(39.52374885195729 216.5481277629733) rotate(0 22.380958557128906 -48.095245361328125)"><path d="M44.8 -95.72 L47.27 -83.8 L36.14 -88.08 L45.94 -98.49" stroke="none" stroke-width="0" fill="#1e1e1e" fill-rule="evenodd"></path><path d="M45.78 -97.26 C45.77 -94.56, 46.63 -87.92, 45.85 -82.26 M45.78 -97.26 C45.87 -92.54, 45.28 -88.65, 45.85 -82.26 M45.85 -82.26 C41.75 -82.68, 38.84 -86.07, 34.33 -87.56 M45.85 -82.26 C41.94 -84.8, 37.56 -86.17, 34.33 -87.56 M34.33 -87.56 C37.67 -89.9, 39.52 -92.04, 45.78 -97.26 M34.33 -87.56 C37.22 -90.08, 40.38 -92.49, 45.78 -97.26 M45.78 -97.26 C45.78 -97.26, 45.78 -97.26, 45.78 -97.26 M45.78 -97.26 C45.78 -97.26, 45.78 -97.26, 45.78 -97.26" stroke="#1e1e1e" stroke-width="2" fill="none"></path></g></g><mask></mask><g stroke-linecap="round"><g transform="translate(38.57137916201589 216.5481277629733) rotate(0 63.80952072143555 -19.5238037109375)"><path d="M0.27 -0.99 C21.55 -7.33, 105.64 -31.76, 126.93 -37.98 M-1.05 1.1 C20.69 -5.55, 107.86 -32.65, 129.28 -39.54" stroke="#1e1e1e" stroke-width="2" fill="none"></path></g><g transform="translate(38.57137916201589 216.5481277629733) rotate(0 63.80952072143555 -19.5238037109375)"><path d="M128.72 -39.43 L116.57 -29.82 L115.97 -42.53 L128.1 -40.87" stroke="none" stroke-width="0" fill="#1e1e1e" fill-rule="evenodd"></path><path d="M129.28 -39.54 C125.41 -37.95, 125.35 -34.18, 118.22 -29.4 M129.28 -39.54 C125.27 -35.46, 121.42 -31.82, 118.22 -29.4 M118.22 -29.4 C117.81 -31.08, 116.94 -35.14, 114.41 -41.5 M118.22 -29.4 C117.48 -32.33, 116.7 -36.47, 114.41 -41.5 M114.41 -41.5 C119.38 -41.68, 124.33 -39.49, 129.28 -39.54 M114.41 -41.5 C119.6 -41.01, 124.56 -39.71, 129.28 -39.54 M129.28 -39.54 C129.28 -39.54, 129.28 -39.54, 129.28 -39.54 M129.28 -39.54 C129.28 -39.54, 129.28 -39.54, 129.28 -39.54" stroke="#1e1e1e" stroke-width="2" fill="none"></path></g></g><mask></mask><g stroke-linecap="round"><g transform="translate(81.42851874941823 123.21487580984831) rotate(0 53.80952453613281 -27.619094848632812)"><path d="M0.38 -0.5 C18.32 -9.93, 89.71 -46.29, 107.6 -55.57 M-0.88 -1.8 C16.9 -10.54, 88.66 -45.28, 106.64 -54.21" stroke="#1e1e1e" stroke-width="2" fill="none"></path></g><g transform="translate(81.42851874941823 123.21487580984831) rotate(0 53.80952453613281 -27.619094848632812)"><path d="M106.06 -53.19 L96.31 -44.24 L92.51 -54.17 L108.06 -55.92" stroke="none" stroke-width="0" fill="#1e1e1e" fill-rule="evenodd"></path><path d="M106.64 -54.21 C103.33 -50.76, 100.74 -47.2, 97.22 -42.54 M106.64 -54.21 C104.18 -52.05, 102.02 -49.77, 97.22 -42.54 M97.22 -42.54 C95.43 -45.27, 92.62 -49.91, 91.64 -53.93 M97.22 -42.54 C95.87 -45.43, 93.63 -48.25, 91.64 -53.93 M91.64 -53.93 C94.05 -53.35, 98.67 -54.77, 106.64 -54.21 M91.64 -53.93 C96 -53.87, 99.5 -53.58, 106.64 -54.21 M106.64 -54.21 C106.64 -54.21, 106.64 -54.21, 106.64 -54.21 M106.64 -54.21 C106.64 -54.21, 106.64 -54.21, 106.64 -54.21" stroke="#1e1e1e" stroke-width="2" fill="none"></path></g></g><mask></mask><g stroke-linecap="round"><g transform="translate(166.19042060488698 177.5005203410983) rotate(0 12.380950927734375 -54.28570556640625)"><path d="M0.18 0.06 C4.45 -17.97, 21.5 -89.56, 25.53 -107.48 M-1.19 -0.95 C3.01 -19.36, 20.88 -90.99, 24.98 -109.03" stroke="#1e1e1e" stroke-width="2" fill="none"></path></g><g transform="translate(166.19042060488698 177.5005203410983) rotate(0 12.380950927734375 -54.28570556640625)"><path d="M24.84 -107.81 L27.2 -93.86 L13.68 -97.36 L24.89 -108.45" stroke="none" stroke-width="0" fill="#1e1e1e" fill-rule="evenodd"></path><path d="M24.98 -109.03 C26.01 -103.82, 28.17 -101.02, 27.98 -94.33 M24.98 -109.03 C25.81 -102.97, 28.17 -96.91, 27.98 -94.33 M27.98 -94.33 C25.91 -93.81, 22.52 -94.78, 15.65 -97.28 M27.98 -94.33 C24.78 -94.58, 21.18 -96.18, 15.65 -97.28 M15.65 -97.28 C18.61 -101.41, 20.4 -103.46, 24.98 -109.03 M15.65 -97.28 C17.78 -100.09, 21.1 -103.01, 24.98 -109.03 M24.98 -109.03 C24.98 -109.03, 24.98 -109.03, 24.98 -109.03 M24.98 -109.03 C24.98 -109.03, 24.98 -109.03, 24.98 -109.03" stroke="#1e1e1e" stroke-width="2" fill="none"></path></g></g><mask></mask><g stroke-linecap="round"><g transform="translate(43.333273388090106 212.73861848562956) rotate(0 72.3809585571289 -69.04762268066406)"><path d="M0.32 1.16 C24.79 -21.76, 121.51 -115.26, 145.78 -138.48 M-0.97 0.73 C23.52 -21.94, 120.9 -114.21, 145.37 -137.15" stroke="#1e1e1e" stroke-width="2" fill="none"></path></g><g transform="translate(43.333273388090106 212.73861848562956) rotate(0 72.3809585571289 -69.04762268066406)"><path d="M146.69 -138.82 L138.52 -122.91 L130.74 -133.53 L147.15 -135.78" stroke="none" stroke-width="0" fill="#1e1e1e" fill-rule="evenodd"></path><path d="M145.37 -137.15 C145.53 -132.87, 142.4 -129.67, 139.83 -123.21 M145.37 -137.15 C144 -133.82, 142.17 -129.03, 139.83 -123.21 M139.83 -123.21 C137 -126.1, 134.89 -128.69, 131.13 -132.43 M139.83 -123.21 C136.87 -126.18, 135.43 -128.12, 131.13 -132.43 M131.13 -132.43 C136.47 -134.18, 138.12 -136, 145.37 -137.15 M131.13 -132.43 C135.98 -134.58, 139.43 -136.14, 145.37 -137.15 M145.37 -137.15 C145.37 -137.15, 145.37 -137.15, 145.37 -137.15 M145.37 -137.15 C145.37 -137.15, 145.37 -137.15, 145.37 -137.15" stroke="#1e1e1e" stroke-width="2" fill="none"></path></g></g><mask></mask><g stroke-linecap="round"><g transform="translate(345.2380585443401 210.83383332937956) rotate(0 130 -1.428558349609375)"><path d="M-0.33 0.31 C42.94 -0.21, 217.36 -1.89, 260.71 -2.29 M1.69 -0.57 C44.78 -1.52, 217.27 -3.55, 260.14 -4.12" stroke="#1e1e1e" stroke-width="2" fill="none"></path></g><g transform="translate(345.2380585443401 210.83383332937956) rotate(0 130 -1.428558349609375)"><path d="M258.89 -3.55 L248.02 3.29 L245.74 -11.05 L261.67 -2.86" stroke="none" stroke-width="0" fill="#1e1e1e" fill-rule="evenodd"></path><path d="M260.14 -4.12 C255.31 -0.73, 250.38 0.65, 246.62 2.39 M260.14 -4.12 C255.3 -1.57, 250.15 0.24, 246.62 2.39 M246.62 2.39 C245.78 -0.45, 247.34 -3.67, 246.46 -10.28 M246.62 2.39 C246.55 -2.58, 246.47 -6.06, 246.46 -10.28 M246.46 -10.28 C250.55 -8.01, 255.05 -5.33, 260.14 -4.12 M246.46 -10.28 C250.77 -8.48, 254.93 -7.05, 260.14 -4.12 M260.14 -4.12 C260.14 -4.12, 260.14 -4.12, 260.14 -4.12 M260.14 -4.12 C260.14 -4.12, 260.14 -4.12, 260.14 -4.12" stroke="#1e1e1e" stroke-width="2" fill="none"></path></g></g><mask></mask><g stroke-linecap="round"><g transform="translate(370.952383495512 263.21481477469206) rotate(0 0.952362060546875 -125.71427917480469)"><path d="M0.88 -0.46 C1.24 -42.53, 2.63 -210.43, 2.7 -252.34 M-0.11 -1.74 C0.1 -43.71, 2.11 -209.76, 2.17 -251.28" stroke="#1e1e1e" stroke-width="2" fill="none"></path></g><g transform="translate(370.952383495512 263.21481477469206) rotate(0 0.952362060546875 -125.71427917480469)"><path d="M3.41 -249.3 L8.54 -236.47 L-2.79 -237.85 L1.41 -251.92" stroke="none" stroke-width="0" fill="#1e1e1e" fill-rule="evenodd"></path><path d="M2.17 -251.28 C3.8 -245.56, 5.41 -242.51, 8.41 -237.64 M2.17 -251.28 C3.45 -248.19, 5.66 -243.97, 8.41 -237.64 M8.41 -237.64 C6.66 -238.5, 3.24 -236.84, -4.27 -237.74 M8.41 -237.64 C4.52 -237.33, -0.31 -237.77, -4.27 -237.74 M-4.27 -237.74 C-1.52 -241.43, -1.59 -244.54, 2.17 -251.28 M-4.27 -237.74 C-3.21 -242.16, -0.26 -245.21, 2.17 -251.28 M2.17 -251.28 C2.17 -251.28, 2.17 -251.28, 2.17 -251.28 M2.17 -251.28 C2.17 -251.28, 2.17 -251.28, 2.17 -251.28" stroke="#1e1e1e" stroke-width="2" fill="none"></path></g></g><mask></mask><g stroke-linecap="round"><g transform="translate(371.90471503848073 209.88144075125456) rotate(0 24.285720825195312 -23.80950927734375)"><path d="M-0.53 -0.55 C7.57 -8.54, 40.09 -39.68, 48.3 -47.46 M0.2 0.36 C8.51 -7.57, 41.34 -40.27, 49.4 -48.35" stroke="#1e1e1e" stroke-width="2" fill="none"></path></g><g transform="translate(371.90471503848073 209.88144075125456) rotate(0 24.285720825195312 -23.80950927734375)"><path d="M49.17 -47.83 L44.43 -33.91 L34.93 -43.07 L49.03 -48.26" stroke="none" stroke-width="0" fill="#1e1e1e" fill-rule="evenodd"></path><path d="M49.4 -48.35 C47.46 -45.29, 47.16 -41.21, 44.26 -34.26 M49.4 -48.35 C47.49 -43.44, 45.5 -37.67, 44.26 -34.26 M44.26 -34.26 C41.17 -36.97, 39.17 -39.21, 35.3 -43.23 M44.26 -34.26 C40.7 -37.71, 37.56 -41.24, 35.3 -43.23 M35.3 -43.23 C38.02 -44.17, 41.91 -45.51, 49.4 -48.35 M35.3 -43.23 C39.21 -44.97, 42.9 -45.99, 49.4 -48.35 M49.4 -48.35 C49.4 -48.35, 49.4 -48.35, 49.4 -48.35 M49.4 -48.35 C49.4 -48.35, 49.4 -48.35, 49.4 -48.35" stroke="#1e1e1e" stroke-width="2" fill="none"></path></g></g><mask></mask><g stroke-linecap="round"><g transform="translate(417.6190094720745 166.0719314739108) rotate(0 24.285720825195312 -25.23809814453125)"><path d="M-0.8 0.12 C7.29 -8.26, 40.05 -42.95, 48.34 -51.37 M0.97 -0.86 C8.91 -9.03, 39.37 -42.27, 47.27 -50.31" stroke="#1e1e1e" stroke-width="2" fill="none"></path></g><g transform="translate(417.6190094720745 166.0719314739108) rotate(0 24.285720825195312 -25.23809814453125)"><path d="M47.06 -49.32 L43.49 -34.9 L32.07 -45.46 L45.65 -50.42" stroke="none" stroke-width="0" fill="#1e1e1e" fill-rule="evenodd"></path><path d="M47.27 -50.31 C45.96 -46.62, 43.36 -41.84, 42.54 -36.07 M47.27 -50.31 C45.62 -45.72, 44.39 -42.22, 42.54 -36.07 M42.54 -36.07 C41.12 -38.47, 37.7 -41.03, 33.32 -44.78 M42.54 -36.07 C39.82 -38.05, 37.76 -41.29, 33.32 -44.78 M33.32 -44.78 C39.41 -46.6, 44.49 -49.53, 47.27 -50.31 M33.32 -44.78 C38.26 -47.16, 41.75 -48.09, 47.27 -50.31 M47.27 -50.31 C47.27 -50.31, 47.27 -50.31, 47.27 -50.31 M47.27 -50.31 C47.27 -50.31, 47.27 -50.31, 47.27 -50.31" stroke="#1e1e1e" stroke-width="2" fill="none"></path></g></g><mask></mask><g stroke-linecap="round"><g transform="translate(463.3332733880901 116.54812776297331) rotate(0 30.000030517578125 -28.5714111328125)"><path d="M0.75 -0.86 C10.54 -10.16, 49.85 -46.68, 59.84 -56.15 M-0.32 1.3 C9.2 -8.29, 48.71 -48.1, 58.81 -57.75" stroke="#1e1e1e" stroke-width="2" fill="none"></path></g><g transform="translate(463.3332733880901 116.54812776297331) rotate(0 30.000030517578125 -28.5714111328125)"><path d="M57.71 -55.88 L54.42 -42.66 L42.99 -53.15 L58.42 -58.75" stroke="none" stroke-width="0" fill="#1e1e1e" fill-rule="evenodd"></path><path d="M58.81 -57.75 C55.63 -52.39, 55.89 -45.8, 53.57 -43.69 M58.81 -57.75 C57.92 -53.79, 56.64 -51, 53.57 -43.69 M53.57 -43.69 C51.49 -46.19, 48.08 -49.41, 44.68 -52.73 M53.57 -43.69 C51.13 -46.44, 48.89 -48.1, 44.68 -52.73 M44.68 -52.73 C46.93 -53.92, 51.35 -54, 58.81 -57.75 M44.68 -52.73 C49.35 -54.83, 53.67 -56.92, 58.81 -57.75 M58.81 -57.75 C58.81 -57.75, 58.81 -57.75, 58.81 -57.75 M58.81 -57.75 C58.81 -57.75, 58.81 -57.75, 58.81 -57.75" stroke="#1e1e1e" stroke-width="2" fill="none"></path></g></g><mask></mask><g stroke-linecap="round"><g transform="translate(699.1428001948761 204.45297395437956) rotate(0 126.19048309326175 0)"><path d="M-0.96 -0.83 C41.19 -0.62, 209.55 0.17, 251.76 0.21 M0.74 1.36 C43.38 1.27, 212.35 -1.65, 254.15 -1.81" stroke="#1e1e1e" stroke-width="2" fill="none"></path></g><g transform="translate(699.1428001948761 204.45297395437956) rotate(0 126.19048309326175 0)"><path d="M255.8 -3.52 L239.81 3.2 L239.6 -7.61 L254.69 -0.89" stroke="none" stroke-width="0" fill="#1e1e1e" fill-rule="evenodd"></path><path d="M254.15 -1.81 C250.27 -1.34, 248.76 0.7, 240.63 4.69 M254.15 -1.81 C251.52 0.47, 247.67 1.07, 240.63 4.69 M240.63 4.69 C241.19 1.77, 239.55 -2.74, 240.49 -7.99 M240.63 4.69 C240.06 1.37, 240.39 -2.33, 240.49 -7.99 M240.49 -7.99 C244.79 -6.95, 247.31 -6.28, 254.15 -1.81 M240.49 -7.99 C243.95 -6.03, 245.86 -5.06, 254.15 -1.81 M254.15 -1.81 C254.15 -1.81, 254.15 -1.81, 254.15 -1.81 M254.15 -1.81 C254.15 -1.81, 254.15 -1.81, 254.15 -1.81" stroke="#1e1e1e" stroke-width="2" fill="none"></path></g></g><mask></mask><g stroke-linecap="round"><g transform="translate(793.4285210200715 266.35763704031706) rotate(0 0.9523773193359375 -107.14285278320312)"><path d="M-1 0.6 C-0.5 -34.86, 1.87 -178.01, 2.45 -213.82 M0.68 -0.14 C1.11 -35.87, 1.57 -180.24, 1.79 -215.7" stroke="#1e1e1e" stroke-width="2" fill="none"></path></g><g transform="translate(793.4285210200715 266.35763704031706) rotate(0 0.9523773193359375 -107.14285278320312)"><path d="M2.59 -214.05 L6.67 -200.99 L-5 -202.07 L2.78 -217.13" stroke="none" stroke-width="0" fill="#1e1e1e" fill-rule="evenodd"></path><path d="M1.79 -215.7 C4.03 -211.47, 5.47 -207.93, 8.07 -202.07 M1.79 -215.7 C3.43 -210.83, 5.95 -206.92, 8.07 -202.07 M8.07 -202.07 C3.79 -202.13, -0.22 -202.6, -4.61 -202.13 M8.07 -202.07 C3.87 -202.44, -0.09 -202.55, -4.61 -202.13 M-4.61 -202.13 C-2.49 -204.93, -1.42 -210.4, 1.79 -215.7 M-4.61 -202.13 C-3.25 -205.41, -1.58 -208.67, 1.79 -215.7 M1.79 -215.7 C1.79 -215.7, 1.79 -215.7, 1.79 -215.7 M1.79 -215.7 C1.79 -215.7, 1.79 -215.7, 1.79 -215.7" stroke="#1e1e1e" stroke-width="2" fill="none"></path></g></g><mask></mask><g stroke-linecap="round"><g transform="translate(792.4761894771027 203.5005203410983) rotate(0 29.047592163085938 -29.047637939453125)"><path d="M-0.84 0.65 C8.72 -9.19, 47.94 -48.12, 57.86 -58.06 M0.92 -0.05 C10.26 -9.77, 47.24 -46.83, 56.79 -56.5" stroke="#1e1e1e" stroke-width="2" fill="none"></path></g><g transform="translate(792.4761894771027 203.5005203410983) rotate(0 29.047592163085938 -29.047637939453125)"><path d="M55.69 -58.47 L52.42 -42.59 L43.14 -52.56 L55.06 -56.16" stroke="none" stroke-width="0" fill="#1e1e1e" fill-rule="evenodd"></path><path d="M56.79 -56.5 C55.99 -52.03, 53.5 -46.2, 51.71 -42.38 M56.79 -56.5 C56.11 -52.68, 54.86 -50.47, 51.71 -42.38 M51.71 -42.38 C48.37 -44.75, 46.82 -46.12, 42.71 -51.32 M51.71 -42.38 C49.19 -44.68, 47.74 -46.82, 42.71 -51.32 M42.71 -51.32 C45.15 -52.82, 49.94 -52.28, 56.79 -56.5 M42.71 -51.32 C46.3 -51.97, 48.48 -53.17, 56.79 -56.5 M56.79 -56.5 C56.79 -56.5, 56.79 -56.5, 56.79 -56.5 M56.79 -56.5 C56.79 -56.5, 56.79 -56.5, 56.79 -56.5" stroke="#1e1e1e" stroke-width="2" fill="none"></path></g></g><mask></mask><g stroke-linecap="round"><g transform="translate(846.7618645259308 149.2148758098483) rotate(0 21.90478515625 -22.380950927734375)"><path d="M0.19 0.03 C7.57 -7.38, 36.96 -36.96, 44.2 -44.4 M-0.37 -0.42 C6.97 -7.99, 36.71 -37.66, 43.97 -45.18" stroke="#1e1e1e" stroke-width="2" fill="none"></path></g><g transform="translate(846.7618645259308 149.2148758098483) rotate(0 21.90478515625 -22.380950927734375)"><path d="M43.37 -44.29 L38.01 -30.87 L30.26 -39.62 L43.93 -45.18" stroke="none" stroke-width="0" fill="#1e1e1e" fill-rule="evenodd"></path><path d="M43.97 -45.18 C42.57 -40.55, 41.57 -37.26, 38.94 -31.04 M43.97 -45.18 C42.08 -40.84, 40.74 -35.79, 38.94 -31.04 M38.94 -31.04 C36.17 -33.4, 32.7 -36.86, 29.91 -39.95 M38.94 -31.04 C35.67 -34.78, 31.82 -37.99, 29.91 -39.95 M29.91 -39.95 C33.8 -42.21, 39.18 -43.39, 43.97 -45.18 M29.91 -39.95 C35.12 -42.03, 40.96 -44.03, 43.97 -45.18 M43.97 -45.18 C43.97 -45.18, 43.97 -45.18, 43.97 -45.18 M43.97 -45.18 C43.97 -45.18, 43.97 -45.18, 43.97 -45.18" stroke="#1e1e1e" stroke-width="2" fill="none"></path></g></g><mask></mask><g stroke-linecap="round"><g transform="translate(794.3809135981965 202.5481277629733) rotate(0 -28.095245361328125 29.5238037109375)"><path d="M-0.41 -0.11 C-9.89 10.07, -46.57 50.4, -55.9 60.09 M1.57 -1.22 C-8.12 8.73, -46.89 48.51, -56.7 58.51" stroke="#1e1e1e" stroke-width="2" fill="none"></path></g><g transform="translate(794.3809135981965 202.5481277629733) rotate(0 -28.095245361328125 29.5238037109375)"><path d="M-56.44 56.64 L-52.02 42.64 L-42.26 52.16 L-55.77 57.28" stroke="none" stroke-width="0" fill="#1e1e1e" fill-rule="evenodd"></path><path d="M-56.7 58.51 C-54.84 53.52, -51.52 47.53, -51.73 44.36 M-56.7 58.51 C-55.59 56.17, -55.12 52.57, -51.73 44.36 M-51.73 44.36 C-49.67 47.02, -48.75 47.16, -42.66 53.22 M-51.73 44.36 C-48.31 47.77, -45.83 49.79, -42.66 53.22 M-42.66 53.22 C-49.08 54.22, -52.2 55.77, -56.7 58.51 M-42.66 53.22 C-47.13 54.94, -51.43 56.81, -56.7 58.51 M-56.7 58.51 C-56.7 58.51, -56.7 58.51, -56.7 58.51 M-56.7 58.51 C-56.7 58.51, -56.7 58.51, -56.7 58.51" stroke="#1e1e1e" stroke-width="2" fill="none"></path></g></g><mask></mask><g transform="translate(10 220.4053054973483) rotate(0 11 16.099999999999998)"><text x="0" y="23.660546874999998" font-family="Helvetica, Segoe UI Emoji" font-size="28px" fill="#1e1e1e" text-anchor="start" style="white-space: pre;" direction="ltr" dominant-baseline="alphabetic">O</text></g><g transform="translate(343.1798571833859 218.5116585789456) rotate(0 11 16.099999999999998)"><text x="0" y="23.660546874999998" font-family="Helvetica, Segoe UI Emoji" font-size="28px" fill="#1e1e1e" text-anchor="start" style="white-space: pre;" direction="ltr" dominant-baseline="alphabetic">O</text></g><g transform="translate(805.6138374893754 210.04601459023016) rotate(0 11 16.099999999999998)"><text x="0" y="23.660546874999998" font-family="Helvetica, Segoe UI Emoji" font-size="28px" fill="#1e1e1e" text-anchor="start" style="white-space: pre;" direction="ltr" dominant-baseline="alphabetic">O</text></g><g transform="translate(429.92329570145097 165.99371523670732) rotate(0 9.5 16.099999999999998)"><text x="0" y="23.660546874999998" font-family="Helvetica, Segoe UI Emoji" font-size="28px" fill="#1e1e1e" text-anchor="start" style="white-space: pre;" direction="ltr" dominant-baseline="alphabetic">B</text></g><g transform="translate(61.50902766287339 88.00877739305042) rotate(0 10 16.099999999999994)"><text x="0" y="23.660546874999998" font-family="Helvetica, Segoe UI Emoji" font-size="28px" fill="#1e1e1e" text-anchor="start" style="white-space: pre;" direction="ltr" dominant-baseline="alphabetic">A</text></g><g transform="translate(472.8929158540904 118.38603497960332) rotate(0 10 16.099999999999998)"><text x="0" y="23.660546874999998" font-family="Helvetica, Segoe UI Emoji" font-size="28px" fill="#1e1e1e" text-anchor="start" style="white-space: pre;" direction="ltr" dominant-baseline="alphabetic">A</text></g><g transform="translate(899.0288485043727 96.04181498216855) rotate(0 10 16.099999999999994)"><text x="0" y="23.660546874999998" font-family="Helvetica, Segoe UI Emoji" font-size="28px" fill="#1e1e1e" text-anchor="start" style="white-space: pre;" direction="ltr" dominant-baseline="alphabetic">A</text></g><g transform="translate(175.73626097451458 169.45853189477884) rotate(0 9.5 16.099999999999998)"><text x="0" y="23.660546874999998" font-family="Helvetica, Segoe UI Emoji" font-size="28px" fill="#1e1e1e" text-anchor="start" style="white-space: pre;" direction="ltr" dominant-baseline="alphabetic">B</text></g><g transform="translate(712.7951231969864 246.06726790676254) rotate(0 9.5 16.099999999999994)"><text x="0" y="23.660546874999998" font-family="Helvetica, Segoe UI Emoji" font-size="28px" fill="#1e1e1e" text-anchor="start" style="white-space: pre;" direction="ltr" dominant-baseline="alphabetic">B</text></g><g transform="translate(187.47069375057026 35.73260688587834) rotate(0 10.5 16.099999999999994)"><text x="0" y="23.660546874999998" font-family="Helvetica, Segoe UI Emoji" font-size="28px" fill="#1e1e1e" text-anchor="start" style="white-space: pre;" direction="ltr" dominant-baseline="alphabetic">C</text></g><g transform="translate(530.0490000786415 57.139098542360955) rotate(0 10.5 16.099999999999994)"><text x="0" y="23.660546874999998" font-family="Helvetica, Segoe UI Emoji" font-size="28px" fill="#1e1e1e" text-anchor="start" style="white-space: pre;" direction="ltr" dominant-baseline="alphabetic">C</text></g><g transform="translate(855.5162706868721 149.70779078106878) rotate(0 10.5 16.099999999999998)"><text x="0" y="23.660546874999998" font-family="Helvetica, Segoe UI Emoji" font-size="28px" fill="#1e1e1e" text-anchor="start" style="white-space: pre;" direction="ltr" dominant-baseline="alphabetic">C</text></g></svg>